<svg width="18" height="18" viewBox="0 0 18 18" fill="none" xmlns="http://www.w3.org/2000/svg">
<path d="M5.8125 1.5625C5.8125 1.25184 5.56066 1 5.25 1C4.93934 1 4.6875 1.25184 4.6875 1.5625V2.74694C3.608 2.83338 2.89933 3.04553 2.37868 3.56618C1.85803 4.08683 1.64588 4.7955 1.55944 5.875H16.4406C16.3541 4.7955 16.142 4.08683 15.6213 3.56618C15.1007 3.04553 14.392 2.83338 13.3125 2.74694V1.5625C13.3125 1.25184 13.0607 1 12.75 1C12.4393 1 12.1875 1.25184 12.1875 1.5625V2.69718C11.6886 2.6875 11.1293 2.6875 10.5 2.6875H7.5C6.87072 2.6875 6.31145 2.6875 5.8125 2.69718V1.5625Z" fill="url(#paint0_linear_43_94)"/>
<path fill-rule="evenodd" clip-rule="evenodd" d="M1.5 8.6875C1.5 8.05822 1.5 7.49895 1.50968 7H16.4903C16.5 7.49895 16.5 8.05822 16.5 8.6875V10.1875C16.5 13.0159 16.5 14.4301 15.6213 15.3088C14.7426 16.1875 13.3284 16.1875 10.5 16.1875H7.5C4.67157 16.1875 3.25736 16.1875 2.37868 15.3088C1.5 14.4301 1.5 13.0159 1.5 10.1875V8.6875ZM12.75 10.1875C13.1642 10.1875 13.5 9.85171 13.5 9.4375C13.5 9.02329 13.1642 8.6875 12.75 8.6875C12.3358 8.6875 12 9.02329 12 9.4375C12 9.85171 12.3358 10.1875 12.75 10.1875ZM12.75 13.1875C13.1642 13.1875 13.5 12.8517 13.5 12.4375C13.5 12.0233 13.1642 11.6875 12.75 11.6875C12.3358 11.6875 12 12.0233 12 12.4375C12 12.8517 12.3358 13.1875 12.75 13.1875ZM9.75 9.4375C9.75 9.85171 9.41421 10.1875 9 10.1875C8.58579 10.1875 8.25 9.85171 8.25 9.4375C8.25 9.02329 8.58579 8.6875 9 8.6875C9.41421 8.6875 9.75 9.02329 9.75 9.4375ZM9.75 12.4375C9.75 12.8517 9.41421 13.1875 9 13.1875C8.58579 13.1875 8.25 12.8517 8.25 12.4375C8.25 12.0233 8.58579 11.6875 9 11.6875C9.41421 11.6875 9.75 12.0233 9.75 12.4375ZM5.25 10.1875C5.66421 10.1875 6 9.85171 6 9.4375C6 9.02329 5.66421 8.6875 5.25 8.6875C4.83579 8.6875 4.5 9.02329 4.5 9.4375C4.5 9.85171 4.83579 10.1875 5.25 10.1875ZM5.25 13.1875C5.66421 13.1875 6 12.8517 6 12.4375C6 12.0233 5.66421 11.6875 5.25 11.6875C4.83579 11.6875 4.5 12.0233 4.5 12.4375C4.5 12.8517 4.83579 13.1875 5.25 13.1875Z" fill="url(#paint1_linear_43_94)"/>
<defs>
<linearGradient id="paint0_linear_43_94" x1="9.03086" y1="1" x2="9.03086" y2="16.1875" gradientUnits="userSpaceOnUse">
<stop stop-color="#4875B9"/>
<stop offset="1" stop-color="#5AA1EF"/>
</linearGradient>
<linearGradient id="paint1_linear_43_94" x1="9.03086" y1="1" x2="9.03086" y2="16.1875" gradientUnits="userSpaceOnUse">
<stop stop-color="#4875B9"/>
<stop offset="1" stop-color="#5AA1EF"/>
</linearGradient>
</defs>
</svg>
