<svg width="16" height="17" viewBox="0 0 16 17" fill="none" xmlns="http://www.w3.org/2000/svg">
<path d="M9.49934 2.79741L10.1667 2.13006C11.2724 1.02435 13.0651 1.02435 14.1708 2.13006C15.2765 3.23577 15.2765 5.02847 14.1708 6.13418L13.5035 6.80153M9.49934 2.79741C9.49934 2.79741 9.58276 4.21554 10.8341 5.46683C12.0853 6.71811 13.5035 6.80153 13.5035 6.80153M9.49934 2.79741L3.36405 8.93271C2.94849 9.34826 2.74072 9.55604 2.56202 9.78514C2.35123 10.0554 2.17052 10.3478 2.02306 10.6572C1.89807 10.9195 1.80514 11.1982 1.6193 11.7558L1.0243 13.5408L0.8318 14.1183M13.5035 6.80153L7.36817 12.9368C6.95261 13.3524 6.74483 13.5602 6.51574 13.7389C6.24549 13.9496 5.95308 14.1304 5.64368 14.2778C5.3814 14.4028 5.10263 14.4957 4.54511 14.6816L2.7601 15.2766L2.1826 15.4691M2.1826 15.4691L1.6051 15.6616C1.33074 15.753 1.02825 15.6816 0.823752 15.4771C0.619253 15.2726 0.547846 14.9701 0.639301 14.6958L0.8318 14.1183M2.1826 15.4691L0.8318 14.1183" stroke="#1E3573"/>
</svg>
