<svg width="56" height="56" viewBox="0 0 56 56" fill="none" xmlns="http://www.w3.org/2000/svg">
<g clip-path="url(#clip0_5350_136848)">
<path fill-rule="evenodd" clip-rule="evenodd" d="M26.0657 6.06996C24.4992 6.22764 22.9719 6.52968 21.5008 6.97279C21.1212 7.08716 19.9676 7.49762 19.789 7.58188C19.7193 7.61478 19.4483 7.73226 19.1867 7.84296C18.2474 8.24061 17.1433 8.8282 16.2565 9.40223C16.0223 9.55389 15.8011 9.67796 15.7651 9.67796C15.7292 9.67796 15.6997 9.70738 15.6997 9.74333C15.6997 9.77934 15.6497 9.82727 15.5887 9.84997C15.3963 9.92148 14.222 10.8144 13.6392 11.3325C12.7202 12.1494 12.0687 12.8027 11.243 13.7356C10.7829 14.2554 9.86684 15.4775 9.86684 15.5715C9.86684 15.6079 9.83888 15.6376 9.80471 15.6376C9.7706 15.6376 9.68469 15.7446 9.61387 15.8754C9.45797 16.1633 9.33992 16.3558 9.29319 16.3984C9.14084 16.5374 8.21931 18.3091 7.84221 19.188C7.72999 19.4496 7.59754 19.7535 7.5479 19.8633C7.49826 19.9732 7.45762 20.083 7.45762 20.1074C7.45762 20.1317 7.41787 20.2415 7.36936 20.3514C7.22177 20.6854 6.96683 21.4823 6.74772 22.2947C6.23931 24.1797 6.00391 25.9854 6.00391 28.0007C6.00391 30.0161 6.23931 31.8218 6.74772 33.7068C6.97704 34.557 7.05769 34.8198 7.13149 34.9577C7.17136 35.0322 7.20402 35.1408 7.20402 35.1988C7.20402 35.2569 7.24478 35.3943 7.29462 35.5041C7.34445 35.614 7.47486 35.9321 7.58436 36.2111C7.84652 36.879 8.46854 38.2132 8.57677 38.34C8.62374 38.3951 8.66223 38.4606 8.66223 38.4856C8.66223 38.5354 9.23569 39.5516 9.29275 39.603C9.33504 39.6411 9.44713 39.8203 9.59022 40.0785C9.7226 40.3175 10.8588 41.8313 11.1605 42.1708C11.8454 42.9412 12.1122 43.2232 12.6809 43.7782C13.0255 44.1146 13.3645 44.4435 13.4341 44.509C13.8576 44.9081 15.5606 46.2082 15.9277 46.4128C16.1845 46.5558 16.3598 46.6659 16.3971 46.7076C16.5379 46.8648 18.3966 47.8318 19.2184 48.1754C19.4625 48.2775 19.7478 48.3979 19.8524 48.443C21.1104 48.986 23.3026 49.573 24.8611 49.7841C26.1381 49.9571 26.6487 49.9916 27.9677 49.9939C31.3303 49.9999 34.3026 49.3369 37.4144 47.8866C38.134 47.5513 39.5112 46.809 39.6017 46.7077C39.639 46.666 39.814 46.556 40.0711 46.4128C40.4382 46.2082 42.1412 44.9081 42.5647 44.509C42.6343 44.4435 42.9733 44.1146 43.3179 43.7782C43.8866 43.2232 44.1534 42.9412 44.8383 42.1708C45.14 41.8313 46.2762 40.3175 46.4086 40.0785C46.5506 39.8222 46.6636 39.6414 46.7056 39.603C46.8614 39.4609 47.8757 37.5101 48.189 36.75C48.2825 36.5234 48.396 36.2523 48.4414 36.1477C49.1293 34.561 49.78 31.8269 49.9166 29.949C49.9363 29.678 49.9773 29.4409 50.0076 29.4222C50.038 29.4034 50.0624 28.7264 50.0619 27.9177C50.0613 27.08 50.0376 26.4842 50.0067 26.5329C49.973 26.586 49.9391 26.4183 49.917 26.0891C49.8466 25.0385 49.5773 23.5041 49.2511 22.2947C49.0175 21.4288 48.6458 20.3024 48.4456 19.8538C48.3989 19.7491 48.2696 19.4496 48.1583 19.188C47.7541 18.2386 47.1696 17.141 46.5979 16.2578C46.4462 16.0236 46.3222 15.8025 46.3222 15.7664C46.3222 15.7305 46.2928 15.701 46.2568 15.701C46.2208 15.701 46.1729 15.6511 46.1502 15.5901C46.0984 15.4507 45.7164 14.9239 45.2193 14.3062C44.3592 13.2373 43.2691 12.1073 42.2946 11.2741C41.5849 10.6674 40.4137 9.77959 40.0711 9.58869C39.8172 9.44725 39.6394 9.33579 39.6017 9.29452C39.4612 9.14045 37.6748 8.21062 36.8121 7.84239C36.5506 7.7308 36.2467 7.59887 36.1368 7.54922C36.0269 7.49958 35.9128 7.45799 35.8832 7.45679C35.8536 7.45558 35.7153 7.39954 35.5758 7.33214C35.4363 7.26475 35.2704 7.2087 35.207 7.20749C35.1438 7.20629 35.0309 7.17269 34.9563 7.13281C34.8199 7.05977 34.7419 7.03593 33.6421 6.73091C32.5982 6.44143 31.2224 6.20038 29.838 6.06438C29.1231 5.9942 26.7846 5.99762 26.0657 6.06996ZM26.8519 7.04259C26.8368 7.05774 26.454 7.10168 26.0012 7.14023C25.5485 7.17884 24.9498 7.25156 24.6709 7.3019C24.3919 7.35224 24.021 7.41894 23.8467 7.45007C22.7651 7.64325 20.6833 8.29361 19.6622 8.75739C19.1775 8.97751 18.1036 9.50621 17.7602 9.69375C16.9381 10.1427 15.5716 11.1017 15.5743 11.2279C15.5751 11.2646 16.1957 11.5031 16.9533 11.7578C18.8851 12.4072 18.7586 12.3788 19.0424 12.2288C19.9806 11.7332 20.2264 11.61 20.6766 11.4103C21.1876 11.1837 21.4227 11.0953 22.2934 10.8029C23.4592 10.4113 23.7796 10.3255 24.8485 10.1187C25.1903 10.0525 25.4899 9.98609 25.5143 9.971C25.5525 9.94741 26.6559 9.83488 28.1332 9.70402C28.3636 9.6836 28.9857 9.70022 29.5154 9.74092C30.5651 9.82163 30.5318 9.82816 30.9475 9.461C31.0521 9.36863 31.2946 9.17494 31.4864 9.03051C31.6782 8.88615 31.935 8.69246 32.057 8.60009C32.3543 8.37521 33.1569 7.90275 33.2417 7.90275C33.279 7.90275 33.3423 7.86331 33.3823 7.81506C33.4418 7.74336 33.402 7.71945 33.1629 7.68363C33.0022 7.65948 32.7624 7.60159 32.6301 7.55487C32.4977 7.5082 32.2219 7.45076 32.0172 7.4273C31.8124 7.40385 31.5451 7.35775 31.423 7.32498C30.7949 7.15608 26.9744 6.9201 26.8519 7.04259ZM26.5412 11.2649C25.0316 11.4542 23.7403 11.7654 22.2934 12.2885C21.3912 12.6147 19.9232 13.3215 19.0257 13.8616C18.574 14.1335 18.4756 14.2285 18.1615 14.6969C17.4946 15.6915 16.895 16.8044 16.4932 17.7932C16.4012 18.0199 16.2848 18.2952 16.2347 18.4051C16.1845 18.515 16.1435 18.648 16.1435 18.7006C16.1435 18.7533 16.0885 18.9487 16.0214 19.1349C15.9054 19.4567 15.6363 20.557 15.6363 20.7099C15.6363 20.7494 15.9144 21.0682 16.2544 21.4182C16.5945 21.7682 17.2007 22.3919 17.6017 22.8041C18.0027 23.2163 19.0155 24.2618 19.8524 25.1273C23.0784 28.4637 23.0712 28.4567 23.2444 28.4238C24.4261 28.1996 24.9384 28.1038 25.3366 28.0329C25.5981 27.9864 25.9405 27.9184 26.0974 27.882C26.2543 27.8455 26.7821 27.7419 27.2703 27.6517C27.7585 27.5615 28.3576 27.4465 28.6017 27.3961C29.1439 27.2842 29.9722 27.1237 30.5671 27.0152C31.4887 26.8472 32.0795 26.7311 32.0892 26.7164C32.0947 26.7079 32.1652 26.5156 32.2459 26.2889C32.3266 26.0623 32.4278 25.7912 32.4709 25.6866C32.514 25.582 32.7987 24.8117 33.1036 23.9748C33.4085 23.1379 33.7268 22.2677 33.8111 22.0411C33.8953 21.8144 34.0034 21.5148 34.0514 21.3754C34.0994 21.2359 34.214 20.9221 34.3059 20.678C34.3979 20.4339 34.5031 20.1343 34.5397 20.0123C34.5763 19.8902 34.6288 19.7618 34.6565 19.727C34.6841 19.6921 34.7366 19.5637 34.7732 19.4417C34.8098 19.3196 34.915 19.02 35.007 18.7759C35.0989 18.5319 35.213 18.218 35.2604 18.0785C35.3078 17.9391 35.4214 17.6252 35.5128 17.3811C35.6043 17.137 35.7101 16.8275 35.7478 16.6932L35.8164 16.449L33.2234 13.8597L30.6305 11.2705L30.1346 11.2033C29.3885 11.1023 27.5917 11.1331 26.5412 11.2649ZM40.7798 11.3898C40.8052 11.4421 40.9166 11.599 41.0273 11.7385C41.9813 12.9402 42.7358 14.4028 43.0572 15.6736C43.1659 16.1032 43.1889 16.1373 43.6131 16.4978C44.3519 17.1258 45.529 18.3225 45.9505 18.8742C46.0424 18.9945 46.1708 19.1548 46.2358 19.2303C46.4949 19.5314 46.6024 19.679 47.1371 20.4665C47.3186 20.7337 47.5552 21.1188 47.6629 21.3224C47.8773 21.7274 47.9748 21.8677 48.0145 21.8281C48.0392 21.8034 47.851 21.2015 47.721 20.8898C47.6871 20.8081 47.5835 20.5417 47.491 20.2976C47.1776 19.4706 46.7352 18.5428 46.2403 17.6744C45.8295 16.9537 44.9118 15.566 44.7658 15.4448C44.7152 15.4028 44.6738 15.3316 44.6738 15.2864C44.6738 15.2413 44.6489 15.1949 44.6186 15.1832C44.5882 15.1716 44.3543 14.9053 44.0988 14.5915C43.5142 13.8737 42.0754 12.4308 41.4086 11.8935C41.1297 11.6687 40.8636 11.4421 40.8175 11.3898C40.7429 11.3053 40.7387 11.3053 40.7798 11.3898ZM36.7778 18.0295C36.5766 18.5795 36.3199 19.2721 36.2074 19.5685C36.0948 19.8649 35.6964 20.949 35.322 21.9777C34.9477 23.0063 34.5733 24.0334 34.4901 24.2601C34.4069 24.4868 34.2494 24.9261 34.1403 25.2363C34.0311 25.5467 33.903 25.8748 33.8557 25.9654C33.8084 26.0562 33.7695 26.1689 33.7692 26.2159C33.769 26.263 33.7295 26.3914 33.6815 26.5012C33.6334 26.6111 33.5463 26.8345 33.4877 26.9977L33.3814 27.2944L33.6158 27.7268C33.7447 27.9647 33.8834 28.202 33.9241 28.2543C33.9647 28.3066 34.0318 28.4208 34.0731 28.5079C34.1145 28.5951 34.1765 28.7092 34.2108 28.7615C34.2452 28.8138 34.9313 30.0121 35.7355 31.4244C36.5397 32.8366 37.2253 34.0349 37.2589 34.0872C37.2927 34.1395 37.3543 34.2536 37.396 34.3408C37.4377 34.428 37.48 34.511 37.4901 34.5252C37.5245 34.5738 38.3646 34.5281 39.1262 34.4361C39.5447 34.3856 40.3292 34.3139 40.8697 34.2767C41.4102 34.2395 42.0236 34.184 42.2328 34.1532C42.4421 34.1226 42.87 34.0804 43.1838 34.0596C43.7974 34.019 44.935 33.9043 45.1607 33.8603C45.3995 33.8138 46.1649 32.3039 46.5973 31.0263C47.1733 29.3244 47.418 28.2737 47.7819 25.9402C47.8994 25.1867 47.8516 24.9228 47.4202 23.9431C47.0255 23.0469 46.3346 21.7637 46.0314 21.3638C45.9472 21.2528 45.8784 21.1441 45.8784 21.1223C45.8784 21.0188 45.0109 19.9328 44.2859 19.1285C43.7921 18.5805 43.5267 18.3183 42.735 17.5956L42.4836 17.3661L41.3438 17.2926C40.7169 17.2522 39.8189 17.1938 39.3481 17.1628C38.8774 17.1319 38.1888 17.0892 37.8179 17.068L37.1435 17.0294L36.7778 18.0295ZM8.73413 19.727C8.68784 19.8316 8.61087 20.0027 8.56307 20.1074C8.20074 20.9006 7.58201 22.9987 7.42256 23.9748C7.37697 24.2538 7.31142 24.6246 7.27693 24.799C6.95511 26.4248 6.99213 30.4104 7.33589 31.146C7.40284 31.2893 7.45762 31.4356 7.45762 31.4711C7.45762 31.5066 7.50168 31.5722 7.55557 31.617C7.64345 31.6898 7.64915 31.6137 7.6113 30.8798C7.56844 30.0504 7.66158 28.1344 7.77595 27.4935C7.81013 27.3017 7.88151 26.8773 7.93445 26.5503C7.98746 26.2232 8.04896 25.9263 8.07115 25.8903C8.0934 25.8544 8.14799 25.6655 8.19256 25.4705C8.30275 24.9886 8.54792 24.1885 8.73825 23.6895L8.89548 23.2774L8.85693 21.4071C8.82333 19.7781 8.80748 19.5613 8.73413 19.727ZM14.3683 21.9222C14.2462 21.9552 14.0893 22.0081 14.0196 22.0399C13.9498 22.0717 13.6788 22.1811 13.4173 22.2831C12.2993 22.7188 10.8355 23.5291 10.2041 24.0616C9.99535 24.2376 9.60303 25.4578 9.38772 26.6007C9.33897 26.8593 9.27259 27.1588 9.24019 27.2664C9.11732 27.6742 9.01759 29.0952 9.02399 30.3466C9.03262 32.0402 9.16893 33.1801 9.56651 34.8848C9.61951 35.112 9.74524 35.3936 9.87261 35.5705C10.1579 35.9667 11.0467 37.1037 11.2902 37.384C11.8112 37.9837 13.0048 39.1577 13.5232 39.5803C13.996 39.9657 14.1263 40.0428 14.2206 39.9935C14.2844 39.9602 14.5791 39.8573 14.8755 39.7649C15.1719 39.6725 15.5142 39.5578 15.6363 39.51C15.7583 39.4622 16.2719 39.2915 16.7775 39.1308C17.2831 38.97 17.7539 38.812 17.8236 38.7796C17.8934 38.7472 18.0788 38.6882 18.2357 38.6485C18.3926 38.6087 18.5495 38.5548 18.5844 38.5287C18.6193 38.5026 18.9046 38.4018 19.2184 38.3048C19.7757 38.1325 20.4203 37.9199 20.9302 37.7402C21.1606 37.659 21.188 37.6256 21.2285 37.3748C21.2906 36.9911 21.4579 35.3139 21.5026 34.6261C21.523 34.3123 21.5651 33.8986 21.596 33.7068C21.6269 33.515 21.6838 32.8873 21.7224 32.312C21.7609 31.7366 21.8179 31.0947 21.849 30.8855C21.8801 30.6762 21.9248 30.2463 21.9483 29.9301L21.9909 29.3552L21.2704 28.6209C20.8741 28.217 20.2111 27.5342 19.797 27.1036C19.0441 26.3205 16.4563 23.6459 15.317 22.4732C14.9845 22.1309 14.6849 21.8535 14.6513 21.8566C14.6177 21.8597 14.4903 21.8893 14.3683 21.9222ZM6.02667 28.0007C6.02667 28.8202 6.03573 29.1554 6.04677 28.7457C6.0578 28.336 6.0578 27.6655 6.04677 27.2558C6.03573 26.8461 6.02667 27.1813 6.02667 28.0007ZM44.7316 35.3184C44.7137 35.3364 44.03 35.4088 43.2123 35.4793C40.7592 35.6908 40.3069 35.7322 39.3798 35.8299C38.8916 35.8815 38.2594 35.9418 37.9748 35.9641L37.4574 36.0046L36.3581 37.1485C35.7535 37.7777 34.8443 38.7229 34.3377 39.2489C33.8311 39.775 33.0896 40.5477 32.69 40.9661C32.2903 41.3846 31.8845 41.8056 31.7883 41.9019C31.692 41.9981 31.6132 42.123 31.6132 42.1795C31.6132 42.2721 31.6638 42.4847 31.9655 43.6607C32.0147 43.8525 32.1272 44.3232 32.2156 44.7068C32.3039 45.0904 32.4148 45.5468 32.462 45.7212C32.5093 45.8955 32.5873 46.2094 32.6353 46.4186L32.7227 46.799L32.9763 46.8207C33.1158 46.8327 33.501 46.7956 33.8323 46.7385C34.1635 46.6813 34.7769 46.5774 35.1954 46.5077C37.639 46.1004 39.1195 45.6444 40.2393 44.9539C40.4881 44.8006 40.715 44.6751 40.7436 44.6751C40.7723 44.6751 40.8052 44.6537 40.8169 44.6275C40.8285 44.6013 40.9732 44.477 41.1384 44.351C41.8473 43.8104 43.2456 42.475 43.7227 41.8827C43.8448 41.7311 43.9874 41.5615 44.0397 41.5056C44.1963 41.3384 45.0307 40.2231 45.3253 39.7872C45.5867 39.4004 45.5976 39.3661 45.5539 39.0641C45.5287 38.8898 45.4609 38.1623 45.4034 37.4474C45.3458 36.7326 45.2793 35.9623 45.2556 35.7356L45.2127 35.3235L44.9885 35.3046C44.8652 35.2943 44.7496 35.3005 44.7316 35.3184ZM21.5959 38.9958C21.5088 39.0425 21.3376 39.1017 21.2155 39.1273C21.0935 39.153 20.9651 39.1942 20.9302 39.2191C20.8954 39.2439 20.6101 39.3429 20.2962 39.4391C19.9824 39.5352 19.6258 39.653 19.5037 39.7008C19.3817 39.7487 19.182 39.8162 19.0599 39.8508C18.7429 39.9408 18.2257 40.1125 18.0772 40.1769C18.0075 40.2071 17.3655 40.4213 16.6507 40.653C15.9359 40.8846 15.2511 41.1115 15.1291 41.1574C15.007 41.2032 14.8542 41.2577 14.7893 41.2785C14.6805 41.3133 14.6745 41.3706 14.7111 42.0287C14.7328 42.4207 14.7843 43.1048 14.8255 43.5491L14.9003 44.3568L15.3793 44.7246C15.9161 45.1369 16.9792 45.8586 17.1831 45.9491C17.2564 45.9817 17.402 46.0643 17.5066 46.1327C18.0305 46.4752 19.8409 47.3424 20.5498 47.5906C21.7851 48.0229 22.1674 48.1413 23.2444 48.4254C23.7065 48.5473 23.9233 48.5657 24.766 48.5546C25.3065 48.5475 25.9484 48.5125 26.1925 48.4768C26.4366 48.4411 26.9929 48.3709 27.4288 48.3208C29.0385 48.1358 30.2709 47.8274 31.1089 47.3998C31.3875 47.2577 31.4001 47.2053 31.2674 46.7412C31.2167 46.5638 31.1043 46.119 31.0177 45.7529C30.9311 45.3868 30.7847 44.7876 30.6923 44.4215C30.5999 44.0553 30.4836 43.5561 30.4338 43.312C30.3175 42.7418 30.2232 42.4561 30.1515 42.4561C30.1201 42.4561 29.8811 42.3562 29.6204 42.2342C29.3598 42.1121 29.1291 42.0123 29.1079 42.0123C29.0867 42.0123 28.9071 41.9381 28.7087 41.8475C28.1029 41.5709 27.95 41.5051 27.913 41.5051C27.8935 41.5051 27.6695 41.4095 27.4154 41.2927C27.1612 41.1759 26.668 40.9584 26.3193 40.8094C25.9706 40.6604 25.5997 40.5007 25.4951 40.4545C25.3905 40.4083 25.1337 40.2959 24.9245 40.2046C24.7153 40.1133 24.4585 40 24.3539 39.9527C24.1825 39.8753 23.1123 39.4187 22.547 39.1819C22.4249 39.1308 22.2494 39.0477 22.1568 38.9973C21.9506 38.885 21.8031 38.8846 21.5959 38.9958Z" fill="white"/>
</g>
<defs>
<clipPath id="clip0_5350_136848">
<rect width="44" height="44" fill="white" transform="translate(6 6)"/>
</clipPath>
</defs>
</svg>
