<svg width="56" height="56" viewBox="0 0 56 56" fill="none" xmlns="http://www.w3.org/2000/svg">
<path d="M8.40039 31.9193C8.40039 24.5276 8.40039 20.8318 10.6967 18.5355C12.993 16.2393 16.6888 16.2393 24.0804 16.2393H31.9204C39.312 16.2393 43.0078 16.2393 45.3041 18.5355C47.6004 20.8318 47.6004 24.5276 47.6004 31.9193C47.6004 39.3109 47.6004 43.0067 45.3041 45.303C43.0078 47.5993 39.312 47.5993 31.9204 47.5993H24.0804C16.6888 47.5993 12.993 47.5993 10.6967 45.303C8.40039 43.0067 8.40039 39.3109 8.40039 31.9193Z" stroke="white" stroke-width="3"/>
<path d="M35.8382 16.2404C35.8382 12.5446 35.8382 10.6967 34.6901 9.54853C33.5419 8.40039 31.694 8.40039 27.9982 8.40039C24.3024 8.40039 22.4545 8.40039 21.3063 9.54853C20.1582 10.6967 20.1582 12.5446 20.1582 16.2404" stroke="white" stroke-width="3"/>
<path d="M30.9386 31.9185H25.0586M27.9986 28.9785V34.8585" stroke="white" stroke-width="3" stroke-linecap="round"/>
<circle cx="27.9982" cy="31.9191" r="7.84" stroke="white" stroke-width="3"/>
</svg>
