<svg width="147" height="24" viewBox="0 0 147 24" fill="none" xmlns="http://www.w3.org/2000/svg">
<g clip-path="url(#clip0_45_494)">
<path d="M29.7705 19.8267V4.11939H35.3603C36.4158 4.02002 37.4802 4.1539 38.4781 4.51155C39.476 4.8692 40.383 5.44187 41.1348 6.18896C41.8866 6.93605 42.4648 7.83928 42.8284 8.83464C43.192 9.83 43.3322 10.8931 43.239 11.9487C43.239 16.8575 40.2893 19.8268 35.1886 19.8268L29.7705 19.8267ZM35.0499 17.7555C38.8669 17.7555 40.7545 15.6722 40.7545 11.9486C40.7545 8.245 38.8669 6.19065 35.2056 6.19065H32.2959V17.7555H35.0499Z" fill="#DCE0ED"/>
<path d="M44.3899 13.992C44.3569 13.2034 44.4839 12.4162 44.7631 11.6779C45.0423 10.9396 45.468 10.2654 46.0146 9.69577C46.5612 9.12613 47.2174 8.67287 47.9437 8.36323C48.6701 8.0536 49.4516 7.89398 50.2412 7.89398C51.0308 7.89398 51.8123 8.0536 52.5387 8.36323C53.265 8.67287 53.9212 9.12613 54.4678 9.69577C55.0144 10.2654 55.4401 10.9396 55.7193 11.6779C55.9985 12.4162 56.1255 13.2034 56.0925 13.992C56.1223 14.7786 55.993 15.5632 55.7123 16.2987C55.4317 17.0343 55.0054 17.7057 54.4592 18.2728C53.9129 18.8398 53.2578 19.2909 52.533 19.599C51.8083 19.9071 51.0288 20.066 50.2412 20.066C49.4536 20.066 48.6741 19.9071 47.9494 19.599C47.2246 19.2909 46.5695 18.8398 46.0233 18.2728C45.477 17.7057 45.0508 17.0343 44.7701 16.2987C44.4894 15.5632 44.3601 14.7786 44.3899 13.992ZM53.625 13.984C53.625 11.7291 52.546 9.80943 50.2492 9.80943C47.9364 9.80943 46.8574 11.7291 46.8574 13.984C46.8574 16.2469 47.9364 18.1386 50.2492 18.1386C52.546 18.1386 53.625 16.2469 53.625 13.984Z" fill="#DCE0ED"/>
<path d="M60.0415 19.8267H57.5979V8.04542H59.9437V9.96506H60.0984C60.4355 9.28767 60.9692 8.72764 61.6297 8.35812C62.2901 7.98861 63.0468 7.82678 63.8007 7.89378C64.3883 7.84868 64.9786 7.93408 65.5293 8.14385C66.0799 8.35362 66.5774 8.68258 66.9859 9.10713C67.3944 9.53168 67.7039 10.0413 67.8922 10.5995C68.0805 11.1577 68.1429 11.7506 68.0749 12.3357V19.8268H65.6313V12.6111C65.6689 12.2491 65.6264 11.8833 65.5067 11.5396C65.3871 11.1959 65.1933 10.8827 64.9391 10.6222C64.6849 10.3617 64.3764 10.1603 64.0356 10.0323C63.6949 9.90423 63.3301 9.85268 62.9671 9.88129C62.5739 9.85492 62.1797 9.91334 61.8111 10.0526C61.4425 10.1918 61.1081 10.4086 60.8307 10.6883C60.5532 10.968 60.3391 11.3041 60.203 11.6737C60.0668 12.0433 60.0117 12.4379 60.0414 12.8306L60.0415 19.8267Z" fill="#DCE0ED"/>
<path d="M69.4812 16.4983C69.4812 13.8203 71.9168 13.2377 74.2964 12.9782C76.5503 12.7348 77.4667 12.7468 77.4667 11.9127V11.8568C77.4667 10.5238 76.6582 9.74958 75.0811 9.74958C74.4856 9.69533 73.8877 9.82311 73.3665 10.116C72.8453 10.4089 72.4254 10.8531 72.1624 11.3899L69.8655 10.899C70.3024 9.91629 71.0385 9.09662 71.969 8.55694C72.8995 8.01725 73.9768 7.78513 75.0471 7.89369C77.0414 7.89369 79.9182 8.57613 79.9182 12.0044V19.8266H77.5325V18.2183H77.4347C77.049 18.8421 76.4982 19.3471 75.8432 19.6774C75.1882 20.0078 74.4546 20.1506 73.7234 20.09C71.3368 20.0901 69.4812 18.817 69.4812 16.4983ZM77.4746 15.5803V14.0597C76.5052 14.425 75.4849 14.6377 74.4502 14.6903C73.0367 14.8659 71.8758 15.3009 71.8758 16.5301C71.8758 17.6636 72.873 18.2462 74.2545 18.2462C74.643 18.2937 75.0371 18.2614 75.4127 18.1513C75.7882 18.0413 76.1374 17.8559 76.4388 17.6063C76.7402 17.3568 76.9875 17.0484 77.1656 16.7001C77.3437 16.3517 77.4489 15.9706 77.4746 15.5803Z" fill="#DCE0ED"/>
<path d="M87.5823 9.88524H85.007V16.3666C85.007 17.6955 85.7177 17.939 86.5123 17.939C86.8004 17.9359 87.0875 17.9025 87.3687 17.8392L87.8099 19.7349C87.2985 19.9032 86.7631 19.9868 86.2247 19.9824C85.7729 20.047 85.3124 20.0144 84.8741 19.8869C84.4358 19.7593 84.0298 19.5398 83.6833 19.2428C83.3367 18.9459 83.0575 18.5784 82.8644 18.165C82.6713 17.7516 82.5687 17.3017 82.5634 16.8455V9.88524H80.7249V8.04542H82.5634V5.2248H85.007V8.04542H87.5823L87.5823 9.88524Z" fill="#DCE0ED"/>
<path d="M87.9855 13.992C87.9527 13.2033 88.0797 12.4161 88.359 11.6777C88.6383 10.9394 89.0641 10.2651 89.6108 9.69548C90.1575 9.12582 90.8138 8.67255 91.5402 8.3629C92.2666 8.05326 93.0482 7.89363 93.8379 7.89363C94.6276 7.89363 95.4091 8.05326 96.1356 8.3629C96.862 8.67255 97.5183 9.12582 98.0649 9.69548C98.6116 10.2651 99.0374 10.9394 99.3167 11.6777C99.596 12.4161 99.7231 13.2033 99.6902 13.992C99.7199 14.7787 99.5904 15.5633 99.3097 16.2989C99.0289 17.0345 98.6026 17.7059 98.0563 18.273C97.5099 18.8401 96.8547 19.2912 96.1299 19.5993C95.4051 19.9074 94.6255 20.0662 93.8379 20.0662C93.0502 20.0662 92.2707 19.9074 91.5459 19.5993C90.821 19.2912 90.1658 18.8401 89.6195 18.273C89.0731 17.7059 88.6468 17.0345 88.3661 16.2989C88.0853 15.5633 87.9559 14.7787 87.9855 13.992ZM97.2207 13.984C97.2207 11.7291 96.1427 9.80943 93.8469 9.80943C91.5331 9.80943 90.455 11.7291 90.455 13.984C90.455 16.2469 91.5331 18.1386 93.8469 18.1386C96.1427 18.1386 97.2207 16.2469 97.2207 13.984Z" fill="#DCE0ED"/>
<path d="M106.785 19.8267H104.17L99.6104 8.04543H102.234L105.412 17.1129H105.544L108.714 8.04543H111.337L106.785 19.8267Z" fill="#DCE0ED"/>
<path d="M111.016 18.4379C110.995 18.1106 111.074 17.7848 111.242 17.5028C111.409 17.2208 111.658 16.9956 111.955 16.8564C112.252 16.7172 112.584 16.6705 112.908 16.7222C113.232 16.7739 113.533 16.9218 113.772 17.1465C114.011 17.3713 114.176 17.6627 114.248 17.9828C114.319 18.3029 114.292 18.637 114.171 18.9418C114.05 19.2466 113.84 19.508 113.569 19.6921C113.297 19.8763 112.977 19.9746 112.649 19.9744C112.228 19.9862 111.821 19.8311 111.515 19.5432C111.209 19.2552 111.029 18.8578 111.016 18.4379Z" fill="#DCE0ED"/>
<path d="M118.819 19.8267H116.376V8.04542H118.721V9.96506H118.877C119.214 9.28754 119.747 8.72736 120.408 8.3578C121.068 7.98824 121.825 7.82652 122.578 7.89378C123.166 7.84876 123.756 7.93422 124.307 8.14402C124.858 8.35382 125.355 8.68278 125.763 9.10731C126.172 9.53185 126.481 10.0414 126.67 10.5996C126.858 11.1577 126.92 11.7506 126.853 12.3357V19.8268H124.409V12.6111C124.447 12.2491 124.404 11.8832 124.284 11.5395C124.165 11.1958 123.971 10.8826 123.716 10.6221C123.462 10.3616 123.154 10.1602 122.813 10.0322C122.472 9.90418 122.107 9.85266 121.744 9.88129C121.351 9.85503 120.957 9.91352 120.588 10.0528C120.22 10.1921 119.885 10.4089 119.608 10.6886C119.331 10.9683 119.117 11.3043 118.981 11.6739C118.845 12.0435 118.79 12.4379 118.819 12.8306V19.8267Z" fill="#DCE0ED"/>
<path d="M128.314 14.0119C128.248 13.2188 128.351 12.4208 128.615 11.67C128.879 10.9192 129.299 10.2327 129.846 9.65516C130.394 9.07766 131.058 8.62225 131.794 8.31871C132.53 8.01517 133.322 7.87034 134.117 7.89369C134.89 7.85243 135.662 7.98032 136.38 8.2684C137.097 8.55648 137.743 8.9978 138.273 9.5615C138.802 10.1252 139.202 10.7977 139.444 11.5319C139.686 12.2661 139.765 13.0444 139.675 13.8123V14.6264H130.75C130.719 15.1013 130.791 15.5771 130.959 16.0221C131.128 16.4671 131.389 16.8709 131.727 17.2065C132.064 17.5421 132.47 17.8017 132.916 17.968C133.362 18.1342 133.838 18.2032 134.313 18.1704C134.911 18.2302 135.512 18.1 136.031 17.7983C136.551 17.4966 136.962 17.0389 137.206 16.4902L139.52 16.8813C139.126 17.9182 138.399 18.7943 137.451 19.3712C136.504 19.948 135.391 20.1925 134.289 20.0661C133.483 20.1214 132.675 20.002 131.919 19.7162C131.164 19.4303 130.479 18.9847 129.911 18.4098C129.344 17.835 128.907 17.1444 128.632 16.3853C128.356 15.6263 128.248 14.8167 128.314 14.0119ZM137.28 12.9104C137.298 12.4937 137.228 12.0779 137.076 11.6896C136.924 11.3012 136.692 10.9489 136.396 10.6551C136.1 10.3613 135.746 10.1326 135.356 9.98352C134.967 9.83446 134.55 9.76836 134.133 9.78945C133.273 9.76237 132.437 10.0745 131.806 10.6585C131.174 11.2424 130.797 12.0513 130.757 12.9104H137.28Z" fill="#DCE0ED"/>
<path d="M146.771 9.88524H144.197V16.3666C144.197 17.6955 144.908 17.939 145.7 17.939C145.989 17.9357 146.277 17.9023 146.559 17.8392L147 19.7349C146.489 19.9028 145.953 19.9864 145.415 19.9824C144.963 20.0473 144.502 20.0149 144.064 19.8875C143.626 19.7601 143.22 19.5406 142.873 19.2436C142.526 18.9466 142.247 18.579 142.054 18.1654C141.861 17.7518 141.759 17.3018 141.754 16.8455V9.88524H139.913V8.04542H141.754V5.2248H144.197V8.04542H146.771L146.771 9.88524Z" fill="#DCE0ED"/>
<path d="M0 12.1043L3.44169 3.58926L11.9012 0L20.4201 3.44016L24.0109 11.896L20.5692 20.411L12.1097 24.0003L3.59086 20.5601L0 12.1043Z" fill="#0D6EFD"/>
<path d="M12.0971 11.8097L3.44169 3.58926L0 12.1043L12.0971 11.8097Z" fill="#00A4FF"/>
<path d="M12.2103 11.86L11.9012 0L3.44165 3.58926L12.2103 11.86Z" fill="#2CAFFF"/>
<path d="M12.0054 12.0001L12.1096 24.0003L20.5691 20.411L12.0054 12.0001Z" fill="#2463ED"/>
<path d="M18.9625 12.0612L16.9675 7.12643L12.0665 5.04617L7.12953 7.0402L5.04834 11.9391L7.04326 16.8739L11.9443 18.9541L16.8813 16.9601L18.9625 12.0612Z" fill="#1099FF"/>
<path opacity="0.63" d="M7.64222 13.3878C10.6386 13.3878 13.0676 10.9599 13.0676 7.96481C13.0676 4.96975 10.6386 2.54178 7.64222 2.54178C4.64584 2.54178 2.2168 4.96975 2.2168 7.96481C2.2168 10.9599 4.64584 13.3878 7.64222 13.3878Z" fill="url(#paint0_radial_45_494)"/>
</g>
<defs>
<radialGradient id="paint0_radial_45_494" cx="0" cy="0" r="1" gradientUnits="userSpaceOnUse" gradientTransform="translate(7.64222 7.96481) scale(5.42543 5.42302)">
<stop stop-color="white" stop-opacity="0.4"/>
<stop offset="0.15769" stop-color="white" stop-opacity="0.4"/>
<stop offset="0.4244" stop-color="white" stop-opacity="0.21446"/>
<stop offset="0.68171" stop-color="white" stop-opacity="0.05922"/>
<stop offset="0.81523" stop-color="white" stop-opacity="0"/>
</radialGradient>
<clipPath id="clip0_45_494">
<rect width="147" height="24" fill="white"/>
</clipPath>
</defs>
</svg>
