<svg width="78" height="78" viewBox="0 0 78 78" fill="none" xmlns="http://www.w3.org/2000/svg">
<path fill-rule="evenodd" clip-rule="evenodd" d="M58.5001 8.9375C57.1539 8.9375 56.0626 7.84619 56.0626 6.5C56.0626 5.15381 57.1539 4.0625 58.5001 4.0625H71.5001C72.486 4.0625 73.3748 4.65638 73.752 5.56721C74.1293 6.47804 73.9208 7.52645 73.2236 8.22357L64.3847 17.0625H71.5001C72.8463 17.0625 73.9376 18.1538 73.9376 19.5C73.9376 20.8462 72.8463 21.9375 71.5001 21.9375H58.5001C57.5142 21.9375 56.6254 21.3436 56.2481 20.4328C55.8708 19.522 56.0794 18.4735 56.7765 17.7764L65.6154 8.9375H58.5001ZM43.8751 28.4375C42.5289 28.4375 41.4376 27.3462 41.4376 26C41.4376 24.6538 42.5289 23.5625 43.8751 23.5625H53.6251C54.6109 23.5625 55.4998 24.1564 55.877 25.0672C56.2543 25.978 56.0458 27.0265 55.3486 27.7236L49.7597 33.3125H53.6251C54.9713 33.3125 56.0626 34.4038 56.0626 35.75C56.0626 37.0962 54.9713 38.1875 53.6251 38.1875H43.8751C42.8892 38.1875 42.0004 37.5936 41.6231 36.6828C41.2458 35.772 41.4544 34.7235 42.1515 34.0264L47.7404 28.4375H43.8751Z" fill="#363A4A"/>
<path opacity="0.5" d="M39 71.5C56.9493 71.5 71.5 56.9493 71.5 39C71.5 37.4963 69.2462 37.2477 68.4685 38.5347C64.7691 44.657 58.05 48.75 50.375 48.75C38.708 48.75 29.25 39.292 29.25 27.625C29.25 19.95 33.343 13.2309 39.4653 9.53147C40.7523 8.75377 40.5037 6.5 39 6.5C21.0507 6.5 6.5 21.0507 6.5 39C6.5 56.9493 21.0507 71.5 39 71.5Z" fill="#363A4A"/>
</svg>
