<svg width="66" height="67" viewBox="0 0 66 67" fill="none" xmlns="http://www.w3.org/2000/svg">
<path d="M54.2215 54.2225C65.5623 42.8815 65.9133 24.6548 55.2836 12.8908L60.0449 8.12932C60.5939 7.58027 60.5939 6.69818 60.0449 6.15814C59.4959 5.60909 58.6138 5.60909 58.0738 6.15814L53.3124 10.9106C41.5486 0.0825794 23.1783 0.370607 11.7745 11.7746C0.37066 23.1787 0.0826399 41.5584 10.9104 53.3134L5.36601 58.858C4.81698 59.407 4.81698 60.2891 5.36601 60.8291C5.91505 61.3782 6.79712 61.3782 7.33716 60.8291L12.8905 55.2756C24.6544 65.9146 42.8897 65.5636 54.2215 54.2225ZM13.7546 13.7458C24.0693 3.43089 40.6755 3.14286 51.3413 12.8818L34.2311 29.9923C33.106 29.4973 31.7469 29.7133 30.8288 30.6314C29.9108 31.5495 29.6947 32.9086 30.1898 34.0337L12.8815 51.3423C3.15186 40.6673 3.43988 24.0698 13.7546 13.7458ZM14.8707 53.3045L32.3679 35.8068C33.349 36.0139 34.4111 35.7348 35.1761 34.9788C35.9322 34.2227 36.2112 33.1516 36.0042 32.1705L53.3034 14.8709C62.8531 25.5459 62.5021 41.9994 52.2503 52.2514C41.9986 62.5033 25.5454 62.8453 14.8707 53.3045Z" fill="white"/>
<path d="M37.479 10.7399C37.0109 10.6229 36.5429 10.5149 36.0749 10.4339C34.4998 10.1459 32.8886 10.0558 31.2685 10.1729C30.5575 10.2179 29.8554 10.3079 29.1534 10.4339C24.8421 11.208 20.7738 13.4132 17.2905 16.9055C9.55899 24.6372 8.73993 34.9791 15.0134 44.727L15.1124 44.628L17.0475 42.6928C11.6381 34.2231 12.7002 25.6363 19.3607 18.9757C24.6351 13.7012 31.2595 11.793 37.479 13.7012C39.4231 14.2952 41.3222 15.2673 43.1224 16.6174L45.0845 14.6553L45.1835 14.5563C42.7803 12.7111 40.1792 11.433 37.479 10.7399Z" fill="#F6167C"/>
<path d="M22.5736 22.1792C18.0193 26.7336 17.4703 33.4392 21.2325 38.5067L23.3297 36.4095C20.6295 32.6471 21.1605 27.7957 24.6708 24.2764C28.307 20.64 33.0414 20.082 36.7496 22.8362L36.8126 22.8812L37.2087 22.5302L38.9008 20.8381C33.8334 17.0757 27.1189 17.6248 22.5736 22.1792Z" fill="#765AFF"/>
<path d="M45.0766 42.6034L39.7482 37.275L52.8981 24.1248C52.5201 23.2067 52.0881 22.3246 51.5931 21.4785L21.7109 51.3613C22.557 51.8563 23.4391 52.2883 24.3571 52.6664L37.7771 39.2461L43.1055 44.5746L33.3938 54.2775C34.9689 54.2235 36.508 54.0075 37.9841 53.6385L45.0766 46.5458L47.0477 44.5746L53.8792 37.743C54.2482 36.2669 54.4643 34.7277 54.5183 33.1526L45.0766 42.6034Z" fill="url(#paint0_linear_5661_493)"/>
<defs>
<linearGradient id="paint0_linear_5661_493" x1="21.7119" y1="37.8762" x2="54.5227" y2="37.8762" gradientUnits="userSpaceOnUse">
<stop stop-color="#14CAE1"/>
<stop offset="0.162" stop-color="#14CAE1"/>
<stop offset="0.9441" stop-color="#14CAE1"/>
<stop offset="1" stop-color="#14CAE1"/>
</linearGradient>
</defs>
</svg>
