<svg width="16" height="16" viewBox="0 0 16 16" fill="none" xmlns="http://www.w3.org/2000/svg">
<g clip-path="url(#clip0_59_3607)">
<path d="M8.00293 0C12.4229 0 16.0066 3.583 16.0068 8.00293C16.0068 12.423 12.423 16.0068 8.00293 16.0068C3.583 16.0066 0 12.4229 0 8.00293C0.000218001 3.58313 3.58313 0.000218005 8.00293 0ZM11.2686 4.81152C10.9687 4.81821 10.5021 4.97808 8.2832 5.9043C7.50352 6.23083 5.9505 6.90409 3.61816 7.91699C3.24522 8.07021 3.04538 8.21672 3.02539 8.36328C2.99219 8.64307 3.3919 8.72975 3.8916 8.88965C4.30469 9.0229 4.85111 9.17591 5.1377 9.18262C5.3975 9.18928 5.68416 9.08305 6.00391 8.86328C8.18161 7.3915 9.30138 6.64511 9.37598 6.63086C9.42929 6.61753 9.49632 6.60357 9.54297 6.64355C9.5896 6.68354 9.58967 6.76419 9.58301 6.78418C9.54109 6.95235 7.49684 8.81663 7.37695 8.93652C6.92383 9.40293 6.41116 9.68924 7.2041 10.209C7.89018 10.6619 8.28322 10.9486 8.98926 11.4082C9.43574 11.7014 9.78939 12.0488 10.2559 12.0088C10.4691 11.9887 10.6885 11.7881 10.8018 11.1885C11.0683 9.77568 11.5881 6.70361 11.708 5.4375C11.7213 5.33117 11.7086 5.1918 11.6953 5.125C11.682 5.05836 11.662 4.97094 11.582 4.9043C11.4821 4.82435 11.3352 4.81152 11.2686 4.81152Z" fill="white"/>
</g>
<defs>
<clipPath id="clip0_59_3607">
<rect width="16" height="16" fill="white"/>
</clipPath>
</defs>
</svg>
