<svg width="28" height="28" viewBox="0 0 28 28" fill="none" xmlns="http://www.w3.org/2000/svg">
<rect width="28" height="28" rx="14" fill="url(#paint0_linear_44_381)"/>
<g clip-path="url(#clip0_44_381)">
<path fill-rule="evenodd" clip-rule="evenodd" d="M18.3362 16.4037L17.3751 15.437C17.1093 15.1713 17.1099 14.7398 17.3763 14.4734C17.6428 14.207 18.0742 14.2064 18.34 14.4722L19.2911 15.4233C19.5228 15.6551 19.6387 15.7709 19.784 15.7677C19.9294 15.7644 20.0383 15.6459 20.256 15.4089C21.1145 14.4745 21.544 13.8024 21.545 13.0269C21.546 12.2496 21.1161 11.5773 20.2559 10.6415C20.0853 10.456 20 10.3632 19.9073 10.337C19.8146 10.3109 19.6077 10.3695 19.1939 10.4867C18.7344 10.6169 18.2204 10.5016 17.8593 10.1406C17.4983 9.77948 17.383 9.26552 17.5132 8.80596C17.6304 8.39216 17.689 8.18527 17.6629 8.0926C17.6367 7.99994 17.5439 7.91464 17.3584 7.74404C16.4226 6.88379 15.7503 6.45392 14.973 6.45489C14.1293 6.45594 13.4081 6.96423 12.3381 7.98036C12.2001 8.11144 12.1982 8.33039 12.3324 8.46466L13.5277 9.65993C13.7935 9.92571 13.7929 10.3571 13.5265 10.6236C13.2601 10.89 12.8286 10.8906 12.5629 10.6248L11.3556 9.42452C11.2226 9.29229 11.0074 9.29287 10.8745 9.42581L9.1853 11.115C7.36596 12.9343 6.45629 13.844 6.45489 14.973C6.45392 15.7503 6.88379 16.4226 7.74404 17.3584C7.91464 17.5439 7.99994 17.6367 8.0926 17.6629C8.18526 17.689 8.39216 17.6304 8.80596 17.5132C9.26551 17.383 9.77948 17.4983 10.1406 17.8593C10.5016 18.2204 10.6169 18.7344 10.4867 19.1939C10.3695 19.6077 10.3109 19.8146 10.337 19.9073C10.3632 20 10.456 20.0853 10.6415 20.2559C11.5773 21.1161 12.2496 21.546 13.0269 21.545C14.1559 21.5436 15.0656 20.6339 16.8849 18.8146L18.3336 17.3659C18.5604 17.1391 18.6738 17.0257 18.6742 16.8849C18.6746 16.744 18.5618 16.6306 18.3362 16.4037ZM16.4151 12.5473L15.4526 11.5848C15.1868 11.3191 14.7554 11.3196 14.489 11.586C14.2225 11.8525 14.222 12.2839 14.4878 12.5497L15.4502 13.5121C15.716 13.7779 16.1474 13.7774 16.4139 13.5109C16.6803 13.2445 16.6808 12.8131 16.4151 12.5473Z" fill="white"/>
</g>
<defs>
<linearGradient id="paint0_linear_44_381" x1="14.0576" y1="2.56957e-07" x2="14.0576" y2="28" gradientUnits="userSpaceOnUse">
<stop stop-color="#4D87C8"/>
<stop offset="1" stop-color="#3E6CB2"/>
</linearGradient>
<clipPath id="clip0_44_381">
<rect width="16.3333" height="16.3333" fill="white" transform="translate(5.83325 5.83331)"/>
</clipPath>
</defs>
</svg>
