<svg width="34" height="34" viewBox="0 0 34 34" fill="none" xmlns="http://www.w3.org/2000/svg">
<g clip-path="url(#clip0_45_521)">
<path fill-rule="evenodd" clip-rule="evenodd" d="M26.0264 22.0037L24.0258 19.9915C23.4726 19.4382 23.4737 18.5401 24.0283 17.9855C24.583 17.4309 25.4811 17.4298 26.0343 17.983L28.0142 19.9629C28.4966 20.4453 28.7378 20.6865 29.0403 20.6797C29.3429 20.6729 29.5695 20.4262 30.0227 19.9329C31.8099 17.9877 32.704 16.5888 32.706 14.9745C32.708 13.3563 31.8132 11.9569 30.0225 10.009C29.6674 9.62268 29.4898 9.42954 29.2969 9.37509C29.104 9.32066 28.6733 9.44268 27.812 9.68674C26.8553 9.95778 25.7854 9.71776 25.0338 8.96614C24.2822 8.21451 24.0422 7.14462 24.3132 6.188C24.5573 5.32663 24.6793 4.89594 24.6249 4.70305C24.5704 4.51017 24.3773 4.3326 23.991 3.97748C22.0431 2.18675 20.6436 1.29192 19.0255 1.29393C17.2692 1.29612 15.7679 2.3542 13.5407 4.46941C13.2533 4.74227 13.2493 5.19805 13.5288 5.47753L16.0169 7.96566C16.5702 8.5189 16.5691 9.417 16.0145 9.97162C15.4598 10.5262 14.5617 10.5274 14.0085 9.97412L11.4954 7.47561C11.2186 7.20036 10.7706 7.20156 10.4939 7.4783L6.97764 10.9946C3.19045 14.7818 1.29685 16.6753 1.29393 19.0255C1.29191 20.6436 2.18675 22.0431 3.97747 23.991C4.3326 24.3773 4.51016 24.5704 4.70305 24.6249C4.89594 24.6793 5.32662 24.5573 6.18799 24.3132C7.14462 24.0422 8.2145 24.2822 8.96613 25.0338C9.71776 25.7854 9.95778 26.8553 9.68673 27.812C9.44268 28.6733 9.32065 29.104 9.37509 29.2969C9.42953 29.4898 9.62268 29.6674 10.009 30.0225C11.9569 31.8132 13.3563 32.708 14.9745 32.706C17.3246 32.7031 19.2182 30.8095 23.0054 27.0223L26.021 24.0067C26.4931 23.5346 26.7292 23.2985 26.73 23.0053C26.7308 22.7122 26.496 22.476 26.0264 22.0037ZM22.0274 13.9761L20.0239 11.9726C19.4706 11.4194 18.5725 11.4205 18.0179 11.9751C17.4633 12.5297 17.4622 13.4278 18.0154 13.9811L20.0189 15.9845C20.5721 16.5378 21.4702 16.5367 22.0249 15.982C22.5795 15.4274 22.5806 14.5293 22.0274 13.9761Z" fill="url(#paint0_linear_45_521)"/>
</g>
<defs>
<linearGradient id="paint0_linear_45_521" x1="9.02732" y1="8.94488" x2="25.0551" y2="24.9726" gradientUnits="userSpaceOnUse">
<stop stop-color="#4875B9"/>
<stop offset="1" stop-color="#5AA1EF"/>
</linearGradient>
<clipPath id="clip0_45_521">
<rect width="34" height="34" fill="white"/>
</clipPath>
</defs>
</svg>
